# xmcd
#
# Track frame offsets:
#	150
#	17187
#	35207
#	51947
#	61341
#	73982
#	93464
#	114897
#	132176
#	149752
#	174709
#	187976
#	209086
#	222608
#	234086
#	248886
#	269677
#	288456
#	302681
#	315685
#	332637
#
# Disc length: 4656 seconds
#
# Revision: 1
# Processed by: cddbd v1.5.2PL0 Copyright (c) Steve Scherf et al.
# Submitted via: audiograbber 1.83.01
#
DISCID=55122e15
DTITLE=Diverse kunstnere Country - Australien country vol 03
DYEAR=1900
DGENRE=
TTITLE0=Love You Again - Callum Gleeson
TTITLE1=Down The Road  - Owen Blumdell
TTITLE2=Christmas Without You  - Dale Hooper With Johnny Counterfir and Country L
TTITLE2=egend
TTITLE3=Come Walk With Me  - Stephen R Cheney
TTITLE4=Both Kinds Of Music - Mark Jackson
TTITLE5=Missing You - Peta Evans Taylor
TTITLE6=This Time - Rob Innes
TTITLE7=Funtry In The Country - Ian Crawford
TTITLE8=Down The Road  - The Harrisons
TTITLE9=No Autor Can Write It  - Chris Newman
TTITLE10=King Billy Skyrocket  - Tony Martin
TTITLE11=Just For The Moment  - Briana Lee
TTITLE12=A Fire I Can´t Put Out - Rick Ferrêt
TTITLE13=This Trolley Is Worry - Pearse Coleman
TTITLE14=The Hand That Rocks The Cradle - John Mcsweeney
TTITLE15=Narrabri Memories  - Ian Robertson
TTITLE16=Open Your Eyes  - Peta Evans Taylor
TTITLE17=The Days Of Black And White  - Mark Jackson
TTITLE18=Whe She Kisses Me  - Callum Gleeson
TTITLE19=Always On My Mind - Chris Newman
TTITLE20=Mow The Grass You Lazy Mongrel  - Ian Crawford
EXTD=
EXTT0=
EXTT1=
EXTT2=
EXTT3=
EXTT4=
EXTT5=
EXTT6=
EXTT7=
EXTT8=
EXTT9=
EXTT10=
EXTT11=
EXTT12=
EXTT13=
EXTT14=
EXTT15=
EXTT16=
EXTT17=
EXTT18=
EXTT19=
EXTT20=
PLAYORDER=
